<svg xmlns="http://www.w3.org/2000/svg" x="0px" y="0px"
     width="40" height="40"
     viewBox="0 0 172 172"
     style=" fill:#000000;">
    <g fill="none" fill-rule="nonzero" stroke="none" stroke-width="1" stroke-linecap="butt" stroke-linejoin="miter" stroke-miterlimit="10"
       stroke-dasharray="" stroke-dashoffset="0" font-family="none" font-weight="none" font-size="none" text-anchor="none"
       style="mix-blend-mode: normal">
        <path d="M0,172v-172h172v172z" fill="none"></path>
        <g>
            <path d="M165.55,107.5h-133.3c-1.1868,0 -2.15,-0.9632 -2.15,-2.15v0c0,-1.1868 0.9632,-2.15 2.15,-2.15h133.3c1.1868,0 2.15,0.9632 2.15,2.15v0c0,1.1868 -0.9632,2.15 -2.15,2.15z"
                  fill="#000000"></path>
            <path d="M10.75,101.05c-2.37482,0 -4.3,1.92518 -4.3,4.3c0,2.37482 1.92518,4.3 4.3,4.3c2.37482,0 4.3,-1.92518 4.3,-4.3c0,-2.37482 -1.92518,-4.3 -4.3,-4.3z"
                  fill="#dff0fe"></path>
            <path d="M10.75,103.2c1.1868,0 2.15,0.9632 2.15,2.15c0,1.1868 -0.9632,2.15 -2.15,2.15c-1.1868,0 -2.15,-0.9632 -2.15,-2.15c0,-1.1868 0.9632,-2.15 2.15,-2.15M10.75,98.9c-3.5604,0 -6.45,2.8896 -6.45,6.45c0,3.5604 2.8896,6.45 6.45,6.45c3.5604,0 6.45,-2.8896 6.45,-6.45c0,-3.5604 -2.8896,-6.45 -6.45,-6.45zM165.55,146.2h-133.3c-1.1868,0 -2.15,-0.9632 -2.15,-2.15v0c0,-1.1868 0.9632,-2.15 2.15,-2.15h133.3c1.1868,0 2.15,0.9632 2.15,2.15v0c0,1.1868 -0.9632,2.15 -2.15,2.15z"
                  fill="#000000"></path>
            <path d="M10.75,139.75c-2.37482,0 -4.3,1.92518 -4.3,4.3c0,2.37482 1.92518,4.3 4.3,4.3c2.37482,0 4.3,-1.92518 4.3,-4.3c0,-2.37482 -1.92518,-4.3 -4.3,-4.3z"
                  fill="#dff0fe"></path>
            <path d="M10.75,141.9c1.1868,0 2.15,0.9632 2.15,2.15c0,1.1868 -0.9632,2.15 -2.15,2.15c-1.1868,0 -2.15,-0.9632 -2.15,-2.15c0,-1.1868 0.9632,-2.15 2.15,-2.15M10.75,137.6c-3.5604,0 -6.45,2.8896 -6.45,6.45c0,3.5604 2.8896,6.45 6.45,6.45c3.5604,0 6.45,-2.8896 6.45,-6.45c0,-3.5604 -2.8896,-6.45 -6.45,-6.45zM165.55,30.1h-133.3c-1.1868,0 -2.15,-0.9632 -2.15,-2.15v0c0,-1.1868 0.9632,-2.15 2.15,-2.15h133.3c1.1868,0 2.15,0.9632 2.15,2.15v0c0,1.1868 -0.9632,2.15 -2.15,2.15z"
                  fill="#000000"></path>
            <path d="M10.75,23.65c-2.37482,0 -4.3,1.92518 -4.3,4.3c0,2.37482 1.92518,4.3 4.3,4.3c2.37482,0 4.3,-1.92518 4.3,-4.3c0,-2.37482 -1.92518,-4.3 -4.3,-4.3z"
                  fill="#dff0fe"></path>
            <path d="M10.75,25.8c1.1868,0 2.15,0.9632 2.15,2.15c0,1.1868 -0.9632,2.15 -2.15,2.15c-1.1868,0 -2.15,-0.9632 -2.15,-2.15c0,-1.1868 0.9632,-2.15 2.15,-2.15M10.75,21.5c-3.5604,0 -6.45,2.8896 -6.45,6.45c0,3.5604 2.8896,6.45 6.45,6.45c3.5604,0 6.45,-2.8896 6.45,-6.45c0,-3.5604 -2.8896,-6.45 -6.45,-6.45zM165.55,68.8h-133.3c-1.1868,0 -2.15,-0.9632 -2.15,-2.15v0c0,-1.1868 0.9632,-2.15 2.15,-2.15h133.3c1.1868,0 2.15,0.9632 2.15,2.15v0c0,1.1868 -0.9632,2.15 -2.15,2.15z"
                  fill="#000000"></path>
            <g>
                <path d="M10.75,62.35c-2.37482,0 -4.3,1.92518 -4.3,4.3c0,2.37482 1.92518,4.3 4.3,4.3c2.37482,0 4.3,-1.92518 4.3,-4.3c0,-2.37482 -1.92518,-4.3 -4.3,-4.3z"
                      fill="#dff0fe"></path>
                <path d="M10.75,64.5c1.1868,0 2.15,0.9632 2.15,2.15c0,1.1868 -0.9632,2.15 -2.15,2.15c-1.1868,0 -2.15,-0.9632 -2.15,-2.15c0,-1.1868 0.9632,-2.15 2.15,-2.15M10.75,60.2c-3.5604,0 -6.45,2.8896 -6.45,6.45c0,3.5604 2.8896,6.45 6.45,6.45c3.5604,0 6.45,-2.8896 6.45,-6.45c0,-3.5604 -2.8896,-6.45 -6.45,-6.45z"
                      fill="#000000"></path>
            </g>
        </g>
    </g>
</svg>
